<?xml version="1.0" encoding="UTF-8"?>
<svg version="1.1" xmlns="http://www.w3.org/2000/svg" width="1000" height="750">
<path d="M0 0 C330 0 660 0 1000 0 C1000 247.5 1000 495 1000 750 C670 750 340 750 0 750 C0 502.5 0 255 0 0 Z " fill="#FEFEFE" transform="translate(0,0)"/>
<path d="M0 0 C2.75984086 2.95050344 3.46603612 5.20279185 4.44921875 9.10546875 C4.76761719 10.35070312 5.08601562 11.5959375 5.4140625 12.87890625 C5.69378906 14.04679688 5.97351563 15.2146875 6.26171875 16.41796875 C6.60396484 17.70574219 6.60396484 17.70574219 6.953125 19.01953125 C8.30863403 24.38469286 9.83240818 31.2765899 7.26171875 36.41796875 C8.40640625 35.92296875 8.40640625 35.92296875 9.57421875 35.41796875 C17.0143801 33.40029788 24.33199172 33.44523608 31.26171875 37.05859375 C39.9110824 42.93745811 41.38865407 52.78105095 43.26171875 62.41796875 C44.00267665 66.40903746 44.68339494 70.40014017 45.26171875 74.41796875 C46.10734375 74.08796875 46.95296875 73.75796875 47.82421875 73.41796875 C53.07424659 71.89068792 56.61504146 71.53129636 61.51171875 74.16796875 C65.51458188 77.44303858 67.30714182 79.5622958 68.26171875 84.66796875 C68.63343282 89.26508566 67.45387009 92.05309313 64.78515625 95.75390625 C61.57079423 99.26497862 58.55878671 100.34590942 53.88671875 100.60546875 C53.02046875 100.54359375 52.15421875 100.48171875 51.26171875 100.41796875 C51.59171875 101.07796875 51.92171875 101.73796875 52.26171875 102.41796875 C52.30171075 104.41756887 52.30518674 106.41844117 52.26171875 108.41796875 C63.11593029 104.59889432 69.09417775 97.0219403 75.67358398 87.98657227 C78.20439471 84.56125532 80.7147939 81.798142 84.26171875 79.41796875 C87.07421875 79.66796875 87.07421875 79.66796875 89.26171875 80.41796875 C90.24992339 84.05758585 90.54401809 85.82763338 88.890625 89.28515625 C88.20871094 90.27773437 87.52679687 91.2703125 86.82421875 92.29296875 C77.3777445 106.63970985 66.7965705 124.9742686 67.29248047 142.55615234 C67.4000956 149.71669786 66.54122237 154.24370764 61.63671875 159.79296875 C59.59843286 161.78339014 57.46457077 163.61280088 55.26171875 165.41796875 C54.70645508 165.88928223 54.15119141 166.3605957 53.57910156 166.84619141 C38.59204791 179.38089564 21.22029088 186.36561425 2.26171875 190.41796875 C1.47732422 190.59610107 0.69292969 190.7742334 -0.11523438 190.95776367 C-21.19667017 194.6564333 -45.67417628 191.33427823 -64.73828125 181.41796875 C-68.72997843 178.33096418 -69.7503856 175.12487218 -71.17578125 170.35546875 C-73.23761608 163.77787504 -75.65324289 157.59647454 -78.73828125 151.41796875 C-79.60066406 149.67580078 -79.60066406 149.67580078 -80.48046875 147.8984375 C-88.29594709 132.48613769 -98.39107883 118.71064629 -111.32421875 107.1796875 C-111.92322998 106.64424316 -112.52224121 106.10879883 -113.1394043 105.55712891 C-114.30536944 104.52804555 -115.48355993 103.51260415 -116.67504883 102.51318359 C-120.64023229 99.04764097 -120.64023229 99.04764097 -121.1640625 95.68359375 C-120.73828125 93.41796875 -120.73828125 93.41796875 -119.73828125 91.60546875 C-117.21304344 90.1061088 -114.98831449 89.73353135 -112.06542969 89.78198242 C-106.84700457 91.20812567 -103.39234187 96.11363434 -99.86328125 99.98046875 C-89.15492454 112.17476819 -89.15492454 112.17476819 -74.73828125 118.41796875 C-75.23328125 114.45796875 -75.23328125 114.45796875 -75.73828125 110.41796875 C-76.43953125 110.33546875 -77.14078125 110.25296875 -77.86328125 110.16796875 C-82.9606372 108.83822372 -85.94405093 106.46300864 -89.11328125 102.29296875 C-91.41336281 97.81791468 -91.411953 93.32846766 -90.73828125 88.41796875 C-89.47110802 84.99660103 -88.4888096 83.04126467 -85.6875 80.71484375 C-83.01003919 77.55983983 -83.09848271 75.12922719 -82.80078125 71.04296875 C-81.93171797 62.69717068 -81.93171797 62.69717068 -79.73828125 59.79296875 C-74.90158089 55.9639143 -69.58002252 53.36521584 -63.73828125 51.41796875 C-64.3415625 50.81597656 -64.94484375 50.21398437 -65.56640625 49.59375 C-68.58071387 45.18613831 -69.39637788 40.77999197 -70.48828125 35.60546875 C-70.70871094 34.64576172 -70.92914062 33.68605469 -71.15625 32.69726562 C-72.36704647 27.18851771 -73.44373089 22.04332147 -72.73828125 16.41796875 C-69.33427468 12.25314901 -66.67505381 10.70158583 -61.453125 9.609375 C-60.21296631 9.3400415 -58.97280762 9.07070801 -57.69506836 8.79321289 C-56.35540415 8.52181318 -55.01563933 8.25090971 -53.67578125 7.98046875 C-52.29595479 7.6884189 -50.91648169 7.39469496 -49.53735352 7.09936523 C-46.69345264 6.49301467 -43.8476492 5.89707952 -41 5.30859375 C-36.88360764 4.45437201 -32.77910702 3.55135441 -28.67578125 2.63671875 C-26.17586703 2.08424711 -23.67587061 1.53214727 -21.17578125 0.98046875 C-20.01232178 0.72144775 -18.8488623 0.46242676 -17.65014648 0.19555664 C-16.56419189 -0.0391333 -15.4782373 -0.27382324 -14.359375 -0.515625 C-13.41505615 -0.72243896 -12.4707373 -0.92925293 -11.49780273 -1.14233398 C-7.12276353 -1.83944498 -3.90014275 -2.25329217 0 0 Z " fill="#FCFBFA" transform="translate(675.73828125,125.58203125)"/>
<path d="M0 0 C7.21993277 -0.61013516 10.81541024 -0.09257059 16.76342773 4.10595703 C20.5061903 7.27551843 23.10797491 11.0665572 25.8125 15.125 C26.89907918 16.71317595 27.98882842 18.29918858 29.08203125 19.8828125 C29.5817041 20.60758789 30.08137695 21.33236328 30.59619141 22.07910156 C32.20512785 24.28068624 33.9693068 26.18073491 36 28 C35.29400428 25.69875436 34.56215536 23.4120083 33.8125 21.125 C33.61591797 20.47402344 33.41933594 19.82304687 33.21679688 19.15234375 C32.53573729 16.98503383 32.53573729 16.98503383 31 14 C29.35 13.34 27.7 12.68 26 12 C26 8.04 26 4.08 26 0 C31.11157297 -0.44838359 35.09168671 -0.51038165 39.328125 2.8515625 C44.76104408 9.8331174 46.78163568 19.47144976 48 28 C70.44 28 92.88 28 116 28 C116 22.72 116 17.44 116 12 C118.19486425 6.94516113 120.53085634 3.15733992 125.6484375 0.62109375 C132.25562395 -1.1239937 140.64716271 -1.2578168 147.125 1.125 C151.10667856 3.72174689 153.84763724 6.69527448 156 11 C156.13677734 14.33736713 156.04283944 17.6585233 156 21 C151.71 21 147.42 21 143 21 C142.01 17.535 142.01 17.535 141 14 C135.71800407 12.80011955 135.71800407 12.80011955 131 15 C130.67 19.29 130.34 23.58 130 28 C140.56 28 151.12 28 162 28 C162 31.96 162 35.92 162 40 C157.545 40.495 157.545 40.495 153 41 C153 46.28 153 51.56 153 57 C156.3 57.33 159.6 57.66 163 58 C163 62.29 163 66.58 163 71 C159.37 71.33 155.74 71.66 152 72 C151.91892417 73.93681161 151.86077525 75.8745934 151.8125 77.8125 C151.77769531 78.89144531 151.74289062 79.97039062 151.70703125 81.08203125 C151.74236174 83.99088795 151.74236174 83.99088795 153.38671875 85.82421875 C159.55940727 90.32295784 161.24329715 88 172 88 C172 68.2 172 48.4 172 28 C180.25 28 188.5 28 197 28 C197 31.96 197 35.92 197 40 C193.37 40 189.74 40 186 40 C186 62.77 186 85.54 186 109 C181.71 109 177.42 109 173 109 C172 108 172 108 171.9375 104.4375 C171.958125 103.303125 171.97875 102.16875 172 101 C171.10861328 101.0314209 171.10861328 101.0314209 170.19921875 101.06347656 C167.46632295 101.14741854 164.73369943 101.19890281 162 101.25 C161.06542969 101.28351563 160.13085938 101.31703125 159.16796875 101.3515625 C152.02936995 101.45140304 146.78553222 100.45937431 141.41601562 95.55249023 C137.22359201 90.60392251 137.30848645 85.55845334 137.5 79.3125 C137.49742187 78.37599609 137.49484375 77.43949219 137.4921875 76.47460938 C137.59111133 69.54499489 137.59111133 69.54499489 139.57617188 66.89916992 C140.04603516 66.27244385 140.51589844 65.64571777 141 65 C140.3007918 62.08663251 139.33508269 59.67016539 138 57 C137.90207108 54.4884113 137.86092017 52.01090234 137.875 49.5 C137.87113281 48.81035156 137.86726562 48.12070312 137.86328125 47.41015625 C137.87333354 42.25333293 137.87333354 42.25333293 139 40 C136.03 40 133.06 40 130 40 C130 62.77 130 85.54 130 109 C125.38 109 120.76 109 116 109 C116 86.23 116 63.46 116 40 C112.04 40 108.08 40 104 40 C104 62.77 104 85.54 104 109 C99.71 109 95.42 109 91 109 C91 104.05 91 99.1 91 94 C89.35 94.33 87.7 94.66 86 95 C78.40497077 95.59320971 71.20011004 95.97841348 65 91 C61.25226637 86.38740477 59.86841977 82.63199397 59.88647461 76.78222656 C59.88658791 75.5514035 59.88658791 75.5514035 59.88670349 74.29571533 C59.89186478 73.41953552 59.89702606 72.54335571 59.90234375 71.640625 C59.9037587 70.73624695 59.90517365 69.8318689 59.90663147 68.90008545 C59.91222089 66.01668973 59.92477147 63.13337218 59.9375 60.25 C59.94251637 58.29296987 59.94707904 56.33593853 59.95117188 54.37890625 C59.96218687 49.58590747 59.97944426 44.79296698 60 40 C56.37 40 52.74 40 49 40 C49 62.77 49 85.54 49 109 C44.38 109 39.76 109 35 109 C35 86.23 35 63.46 35 40 C31.04 40 27.08 40 23 40 C23.00222061 40.84968857 23.00444122 41.69937714 23.00672913 42.57481384 C23.02673014 50.56536725 23.04197316 58.5559123 23.05181217 66.54648495 C23.05704046 70.65494285 23.06413713 74.76338014 23.07543945 78.87182617 C23.08627025 82.83346828 23.09227724 86.79509052 23.09487724 90.75674629 C23.09673114 92.27148311 23.1003511 93.78621879 23.10573006 95.30094719 C23.11294307 97.41541813 23.11399083 99.52980594 23.11352539 101.64428711 C23.115746 102.85007919 23.11796661 104.05587128 23.12025452 105.29820251 C23 108 23 108 22 109 C17.71 109 13.42 109 9 109 C9 100.42 9 91.84 9 83 C5.7 83 2.4 83 -1 83 C-1.061875 84.32 -1.12375 85.64 -1.1875 87 C-1.8988002 93.02234173 -3.95780981 97.46484151 -8.6640625 101.38671875 C-16.17258732 105.64952666 -26.62961094 104.76295349 -35 104 C-35.99 103.67 -36.98 103.34 -38 103 C-38 98.71 -38 94.42 -38 90 C-37.05125 90.165 -36.1025 90.33 -35.125 90.5 C-25.72244684 91.86797518 -25.72244684 91.86797518 -17 89 C-15.63461062 86.26922124 -15.86768174 84.04439633 -15.875 81 C-15.87242187 79.9275 -15.86984375 78.855 -15.8671875 77.75 C-15.8127659 75.03817948 -15.8127659 75.03817948 -17 73 C-20.0399648 72.30662208 -20.0399648 72.30662208 -23.5625 71.875 C-25.686875 71.58625 -27.81125 71.2975 -30 71 C-30 66.71 -30 62.42 -30 58 C-28.06125 57.87625 -26.1225 57.7525 -24.125 57.625 C-19.53630027 57.53381474 -19.53630027 57.53381474 -16 55 C-15.60424204 52.43773886 -15.60424204 52.43773886 -15.625 49.5625 C-15.59664063 48.59441406 -15.56828125 47.62632812 -15.5390625 46.62890625 C-15.78605874 43.95375317 -15.78605874 43.95375317 -17.5078125 42.1640625 C-21.05636447 40.50658838 -24.4220676 40.68061894 -28.25 40.8125 C-29.36761719 40.83280273 -29.36761719 40.83280273 -30.5078125 40.85351562 C-32.33885416 40.88872796 -34.16952169 40.94253149 -36 41 C-36.02686553 39.02090602 -36.04633375 37.04171029 -36.0625 35.0625 C-36.07410156 33.96035156 -36.08570313 32.85820312 -36.09765625 31.72265625 C-36 29 -36 29 -35 28 C-31.96677664 27.84490893 -28.97207176 27.7681575 -25.9375 27.75 C-25.10283203 27.729375 -24.26816406 27.70875 -23.40820312 27.6875 C-17.34629979 27.64970169 -11.11280185 28.10655341 -6.4375 32.45239258 C-1.82074817 37.85854995 -1.79068089 41.44612039 -1.75 48.25 C-1.729375 49.09691406 -1.70875 49.94382812 -1.6875 50.81640625 C-1.65497785 56.04434187 -2.28080954 59.39168774 -5 64 C-5 64.66 -5 65.32 -5 66 C-4.01 66.99 -4.01 66.99 -3 68 C-3 68.99 -3 69.98 -3 71 C0.96 71 4.92 71 9 71 C9 56.81 9 42.62 9 28 C12.3 27.67 15.6 27.34 19 27 C17.75758865 25.22383426 16.50575129 23.45425957 15.25 21.6875 C14.55390625 20.70136719 13.8578125 19.71523438 13.140625 18.69921875 C10.02766837 14.77393949 8.21189575 13.22218089 3.25 12.3125 C2.1775 12.209375 1.105 12.10625 0 12 C0 8.04 0 4.08 0 0 Z " fill="#0557A6" transform="translate(488,361)"/>
<path d="M0 0 C0.92917236 0.00201416 1.85834473 0.00402832 2.81567383 0.00610352 C10.90826615 0.12290093 19.70309974 0.63279987 27.0625 4.3125 C27.0625 7.6125 27.0625 10.9125 27.0625 14.3125 C24.07942398 13.81975977 21.09958762 13.31925665 18.125 12.77734375 C4.41421336 10.07614094 4.41421336 10.07614094 -8.78125 12.76953125 C-10.81670551 14.13718742 -10.81670551 14.13718742 -11.9375 15.3125 C-12.2675 17.6225 -12.5975 19.9325 -12.9375 22.3125 C20.3925 21.9825 53.7225 21.6525 88.0625 21.3125 C82.21688332 12.01880919 82.21688332 12.01880919 73.0625 9.3125 C73.0625 6.3425 73.0625 3.3725 73.0625 0.3125 C77.77236897 -0.02258949 81.78321794 -0.22479846 86.1875 1.625 C91.83908484 6.90800322 96.31886797 13.55541803 100.0625 20.3125 C100.0625 20.9725 100.0625 21.6325 100.0625 22.3125 C148.5725 22.3125 197.0825 22.3125 247.0625 22.3125 C247.0625 25.6125 247.0625 28.9125 247.0625 32.3125 C244.0925 32.3125 241.1225 32.3125 238.0625 32.3125 C238.0625 50.7925 238.0625 69.2725 238.0625 88.3125 C234.4325 88.3125 230.8025 88.3125 227.0625 88.3125 C227.0625 69.8325 227.0625 51.3525 227.0625 32.3125 C223.7625 32.3125 220.4625 32.3125 217.0625 32.3125 C217.0625 50.7925 217.0625 69.2725 217.0625 88.3125 C213.1025 88.3125 209.1425 88.3125 205.0625 88.3125 C205.0625 75.7725 205.0625 63.2325 205.0625 50.3125 C202.4225 50.3125 199.7825 50.3125 197.0625 50.3125 C197.08606567 51.2571814 197.08606567 51.2571814 197.11010742 52.22094727 C197.17290232 55.10553825 197.21163058 57.98998486 197.25 60.875 C197.27513672 61.86564453 197.30027344 62.85628906 197.32617188 63.87695312 C197.38502494 69.78187745 197.24091374 74.24169736 194.0625 79.3125 C188.01339842 83.50562723 181.14417221 83.23437449 174.0625 82.3125 C170.72246601 80.71637756 168.73842163 78.66434327 167.0625 75.3125 C166.7630429 70.71407809 166.78436362 66.10701583 166.75 61.5 C166.72099609 60.21544922 166.69199219 58.93089844 166.66210938 57.60742188 C166.65373047 56.36927734 166.64535156 55.13113281 166.63671875 53.85546875 C166.61484497 52.1542688 166.61484497 52.1542688 166.5925293 50.41870117 C167.17032763 46.59982937 168.34781693 45.01824045 171.0625 42.3125 C174.53052477 39.82854359 177.84011952 40.08180186 182.015625 40.1171875 C182.67584656 40.1200174 183.33606812 40.12284729 184.01629639 40.12576294 C186.11521897 40.13691585 188.21370742 40.16201054 190.3125 40.1875 C191.73957715 40.19753616 193.16666102 40.2066609 194.59375 40.21484375 C198.08347328 40.23683889 201.57294423 40.27133464 205.0625 40.3125 C205.0625 37.6725 205.0625 35.0325 205.0625 32.3125 C189.5525 32.3125 174.0425 32.3125 158.0625 32.3125 C158.0625 50.7925 158.0625 69.2725 158.0625 88.3125 C154.1025 88.3125 150.1425 88.3125 146.0625 88.3125 C146.0625 75.7725 146.0625 63.2325 146.0625 50.3125 C143.0925 50.3125 140.1225 50.3125 137.0625 50.3125 C137.3925 50.9725 137.7225 51.6325 138.0625 52.3125 C138.21481191 55.20056817 138.29400959 58.04837397 138.3125 60.9375 C138.3434375 62.11119141 138.3434375 62.11119141 138.375 63.30859375 C138.41637412 69.54574217 137.57545176 75.1298698 133.58203125 80.1875 C126.70307985 84.72099658 118.96551646 83.74409677 111.0625 83.3125 C111.0625 79.6825 111.0625 76.0525 111.0625 72.3125 C115.6825 72.3125 120.3025 72.3125 125.0625 72.3125 C125.3925 65.0525 125.7225 57.7925 126.0625 50.3125 C122.4325 50.3125 118.8025 50.3125 115.0625 50.3125 C115.0625 47.0125 115.0625 43.7125 115.0625 40.3125 C125.2925 40.3125 135.5225 40.3125 146.0625 40.3125 C146.0625 37.6725 146.0625 35.0325 146.0625 32.3125 C131.2125 32.3125 116.3625 32.3125 101.0625 32.3125 C101.0625 50.7925 101.0625 69.2725 101.0625 88.3125 C97.4325 88.3125 93.8025 88.3125 90.0625 88.3125 C90.0625 69.8325 90.0625 51.3525 90.0625 32.3125 C86.7625 32.3125 83.4625 32.3125 80.0625 32.3125 C80.0625 50.7925 80.0625 69.2725 80.0625 88.3125 C76.1025 88.3125 72.1425 88.3125 68.0625 88.3125 C68.0625 85.3425 68.0625 82.3725 68.0625 79.3125 C67.38445312 79.40789062 66.70640625 79.50328125 66.0078125 79.6015625 C57.81465157 80.57747918 49.9578664 80.94465297 43.125 75.6875 C37.90484541 70.52890384 36.94863122 65.52693273 36.86694336 58.39819336 C36.87865396 55.36656849 36.95598384 52.34229296 37.0625 49.3125 C37.77277344 49.17972656 38.48304688 49.04695312 39.21484375 48.91015625 C40.13394531 48.73355469 41.05304688 48.55695312 42 48.375 C42.91652344 48.20097656 43.83304687 48.02695312 44.77734375 47.84765625 C47.01539844 47.53535012 47.01539844 47.53535012 48.0625 46.3125 C48.29777773 43.96262738 48.47636417 41.60693961 48.625 39.25 C48.769375 36.960625 48.91375 34.67125 49.0625 32.3125 C42.4625 32.3125 35.8625 32.3125 29.0625 32.3125 C29.10890625 33.90320313 29.1553125 35.49390625 29.203125 37.1328125 C29.24065257 39.23435618 29.27705167 41.33592022 29.3125 43.4375 C29.34601563 44.48421875 29.37953125 45.5309375 29.4140625 46.609375 C29.49017645 52.622377 29.45852149 56.75200152 25.0625 61.3125 C21.19013654 63.59036086 17.6765744 63.52692575 13.25 63.4375 C12.08855469 63.41945313 10.92710937 63.40140625 9.73046875 63.3828125 C8.85003906 63.35960937 7.96960938 63.33640625 7.0625 63.3125 C7.15018248 64.8968317 7.25837329 66.48003567 7.375 68.0625 C7.46201172 69.38507813 7.46201172 69.38507813 7.55078125 70.734375 C8.15318749 73.76939883 8.79359372 75.1997335 11.0625 77.3125 C13.79072008 77.8356545 13.79072008 77.8356545 16.8125 77.625 C17.8746875 77.59019531 18.936875 77.55539062 20.03125 77.51953125 C23.4306837 77.28735343 26.71127552 76.92181354 30.0625 76.3125 C30.0625 79.9425 30.0625 83.5725 30.0625 87.3125 C25.28104066 88.26879187 21.02575632 88.56541556 16.1875 88.625 C15.02154297 88.66850586 15.02154297 88.66850586 13.83203125 88.71289062 C8.36363961 88.77262936 4.22520056 88.03755557 0.0625 84.3125 C-5.94235719 77.68031974 -4.37490773 67.6309281 -4.1875 59.3125 C-4.16740643 57.75913758 -4.1491607 56.2057501 -4.1328125 54.65234375 C-4.08903679 50.87177021 -4.02016974 47.09241489 -3.9375 43.3125 C-0.3075 43.3125 3.3225 43.3125 7.0625 43.3125 C7.0625 46.6125 7.0625 49.9125 7.0625 53.3125 C12.38175322 53.25495508 12.38175322 53.25495508 17.0625 51.3125 C17.14901611 49.89679877 17.16954904 48.476905 17.16015625 47.05859375 C17.15765869 46.2895874 17.15516113 45.52058105 17.15258789 44.72827148 C17.14348389 43.74544189 17.13437988 42.7626123 17.125 41.75 C17.104375 38.635625 17.08375 35.52125 17.0625 32.3125 C6.8325 32.3125 -3.3975 32.3125 -13.9375 32.3125 C-13.9375 50.7925 -13.9375 69.2725 -13.9375 88.3125 C-17.5675 88.3125 -21.1975 88.3125 -24.9375 88.3125 C-24.9375 69.8325 -24.9375 51.3525 -24.9375 32.3125 C-27.9075 32.3125 -30.8775 32.3125 -33.9375 32.3125 C-33.9375 29.0125 -33.9375 25.7125 -33.9375 22.3125 C-30.9675 22.3125 -27.9975 22.3125 -24.9375 22.3125 C-24.91171875 21.66023437 -24.8859375 21.00796875 -24.859375 20.3359375 C-24.39427697 13.16919963 -22.90794584 9.05445001 -17.5 4.0625 C-11.74871885 0.1347958 -6.7834048 -0.0392943 0 0 Z " fill="#0758A7" transform="translate(369.9375,491.6875)"/>
<path d="M0 0 C2.75984086 2.95050344 3.46603612 5.20279185 4.44921875 9.10546875 C4.76761719 10.35070312 5.08601562 11.5959375 5.4140625 12.87890625 C5.69378906 14.04679688 5.97351563 15.2146875 6.26171875 16.41796875 C6.60396484 17.70574219 6.60396484 17.70574219 6.953125 19.01953125 C8.30863403 24.38469286 9.83240818 31.2765899 7.26171875 36.41796875 C8.40640625 35.92296875 8.40640625 35.92296875 9.57421875 35.41796875 C17.0143801 33.40029788 24.33199172 33.44523608 31.26171875 37.05859375 C39.9110824 42.93745811 41.38865407 52.78105095 43.26171875 62.41796875 C44.00267665 66.40903746 44.68339494 70.40014017 45.26171875 74.41796875 C46.10734375 74.08796875 46.95296875 73.75796875 47.82421875 73.41796875 C53.07424659 71.89068792 56.61504146 71.53129636 61.51171875 74.16796875 C65.51458188 77.44303858 67.30714182 79.5622958 68.26171875 84.66796875 C68.63343282 89.26508566 67.45387009 92.05309313 64.78515625 95.75390625 C61.57079423 99.26497862 58.55878671 100.34590942 53.88671875 100.60546875 C53.02046875 100.54359375 52.15421875 100.48171875 51.26171875 100.41796875 C51.59171875 101.07796875 51.92171875 101.73796875 52.26171875 102.41796875 C52.30171075 104.41756887 52.30518674 106.41844117 52.26171875 108.41796875 C41.02807162 105.89039815 35.0199596 95.51727846 29.26171875 86.41796875 C28.21471021 84.50421493 27.17241711 82.58786704 26.13671875 80.66796875 C24.34771434 77.45429903 24.34771434 77.45429903 21.33984375 75.58203125 C19.19988923 75.20350289 19.19988923 75.20350289 16.26171875 75.41796875 C15.60171875 77.72796875 14.94171875 80.03796875 14.26171875 82.41796875 C8.69407968 83.68495497 3.12562379 84.94826535 -2.44360352 86.20825195 C-4.33608231 86.63694214 -6.22833841 87.06661671 -8.12036133 87.49731445 C-10.8478827 88.11802111 -13.57619874 88.73512401 -16.3046875 89.3515625 C-17.14350967 89.54326523 -17.98233185 89.73496796 -18.84657288 89.93247986 C-23.46585242 90.97206843 -28.04092015 91.81942068 -32.73828125 92.41796875 C-32.59390625 91.84949219 -32.44953125 91.28101563 -32.30078125 90.6953125 C-31.13774951 85.85742353 -30.32907144 81.43078889 -30.73828125 76.41796875 C-32.55928272 74.21876379 -32.55928272 74.21876379 -35.11328125 73.98046875 C-37.92428966 74.17257351 -37.92428966 74.17257351 -39.74072266 76.5949707 C-41.69522344 79.35711841 -43.01801483 81.90987281 -44.32421875 85.0234375 C-44.78054688 86.09013672 -45.236875 87.15683594 -45.70703125 88.25585938 C-46.17109375 89.36123047 -46.63515625 90.46660156 -47.11328125 91.60546875 C-56.76243264 114.56990391 -56.76243264 114.56990391 -64.73828125 119.41796875 C-67.74290769 120.06921783 -70.66800845 120.34291764 -73.73828125 120.41796875 C-75.05454817 116.79823473 -75.73828125 114.32229744 -75.73828125 110.41796875 C-76.43953125 110.33546875 -77.14078125 110.25296875 -77.86328125 110.16796875 C-82.9606372 108.83822372 -85.94405093 106.46300864 -89.11328125 102.29296875 C-91.41336281 97.81791468 -91.411953 93.32846766 -90.73828125 88.41796875 C-89.47110802 84.99660103 -88.4888096 83.04126467 -85.6875 80.71484375 C-83.01003919 77.55983983 -83.09848271 75.12922719 -82.80078125 71.04296875 C-81.93171797 62.69717068 -81.93171797 62.69717068 -79.73828125 59.79296875 C-74.90158089 55.9639143 -69.58002252 53.36521584 -63.73828125 51.41796875 C-64.3415625 50.81597656 -64.94484375 50.21398437 -65.56640625 49.59375 C-68.58071387 45.18613831 -69.39637788 40.77999197 -70.48828125 35.60546875 C-70.70871094 34.64576172 -70.92914062 33.68605469 -71.15625 32.69726562 C-72.36704647 27.18851771 -73.44373089 22.04332147 -72.73828125 16.41796875 C-69.33427468 12.25314901 -66.67505381 10.70158583 -61.453125 9.609375 C-60.21296631 9.3400415 -58.97280762 9.07070801 -57.69506836 8.79321289 C-56.35540415 8.52181318 -55.01563933 8.25090971 -53.67578125 7.98046875 C-52.29595479 7.6884189 -50.91648169 7.39469496 -49.53735352 7.09936523 C-46.69345264 6.49301467 -43.8476492 5.89707952 -41 5.30859375 C-36.88360764 4.45437201 -32.77910702 3.55135441 -28.67578125 2.63671875 C-26.17586703 2.08424711 -23.67587061 1.53214727 -21.17578125 0.98046875 C-20.01232178 0.72144775 -18.8488623 0.46242676 -17.65014648 0.19555664 C-16.56419189 -0.0391333 -15.4782373 -0.27382324 -14.359375 -0.515625 C-13.41505615 -0.72243896 -12.4707373 -0.92925293 -11.49780273 -1.14233398 C-7.12276353 -1.83944498 -3.90014275 -2.25329217 0 0 Z " fill="#B9D334" transform="translate(675.73828125,125.58203125)"/>
<path d="M0 0 C0.75474609 0.20898926 1.50949219 0.41797852 2.28710938 0.63330078 C35.12457873 9.97644264 62.38477283 31.84117539 79.22363281 61.5 C94.23759167 88.92797432 99.79082064 124.6467891 91 155 C84.69103933 176.34199104 74.43231558 194.88297418 59 211 C58.26523437 211.80953125 57.53046875 212.6190625 56.7734375 213.453125 C43.72629427 227.32935091 26.29513059 237.15723158 8.33203125 243.2109375 C5.99928456 243.95988932 5.99928456 243.95988932 3.828125 244.96875 C-17.85000397 252.87348211 -40.99992818 250.96075708 -63 246 C-64.93166016 245.566875 -64.93166016 245.566875 -66.90234375 245.125 C-79.69175321 241.8434104 -100.72420657 234.68258313 -108 223 C-108.4375 219.9375 -108.4375 219.9375 -108 217 C-106.4375 215.0625 -106.4375 215.0625 -104 214 C-97.83160874 213.74822893 -94.13372455 216.71024785 -89.125 220.03125 C-77.5902661 227.29813236 -65.23050204 231.0864296 -52 234 C-50.60974609 234.30744141 -50.60974609 234.30744141 -49.19140625 234.62109375 C-19.28599722 238.17167475 11.39533537 231.56556072 35.48828125 213.0546875 C55.62940677 196.57843241 69.10684073 177.19526988 76.375 152.1875 C76.62588379 151.32833984 76.87676758 150.46917969 77.13525391 149.58398438 C81.38613046 134.16826202 82.00901201 115.50914933 78 100 C77.61521484 98.30423828 77.61521484 98.30423828 77.22265625 96.57421875 C72.04621994 75.17976311 61.51726629 57.51726629 46 42 C45.19949219 41.19949219 44.39898438 40.39898437 43.57421875 39.57421875 C19.59700199 16.85276457 -11.26984575 10.03176107 -43.34960938 10.82080078 C-50.86886509 11.18992422 -57.86913657 12.63752811 -65 15 C-65.63856934 15.20898926 -66.27713867 15.41797852 -66.93505859 15.63330078 C-81.70272692 20.64597233 -95.50657262 28.45869086 -107 39 C-107.97453125 39.88171875 -108.9490625 40.7634375 -109.953125 41.671875 C-134.70111994 64.79359585 -147.92038073 99.61160934 -149.109375 133.07861328 C-149.44793441 147.51605621 -148.95218594 161.68977984 -147 176 C-152.82415114 170.17584886 -154.49406296 158.55383464 -156.25 150.6875 C-156.41290527 149.95982422 -156.57581055 149.23214844 -156.74365234 148.48242188 C-160.56364896 130.53939847 -160.27516941 111.7998876 -156 94 C-155.80664062 93.00613281 -155.61328125 92.01226562 -155.4140625 90.98828125 C-151.06867509 70.30536584 -139.09401309 51.38836123 -125 36 C-123.89011719 34.78376953 -123.89011719 34.78376953 -122.7578125 33.54296875 C-91.8567635 1.22703656 -42.94774497 -12.13134355 0 0 Z " fill="#BAD436" transform="translate(694,93)"/>
<path d="M0 0 C4.51277425 2.02587851 5.70035381 3.87544227 9 8 C9 12.62 9 17.24 9 22 C28.47 22 47.94 22 68 22 C68 25.3 68 28.6 68 32 C65.36 32 62.72 32 60 32 C60 50.15 60 68.3 60 87 C56.04 87 52.08 87 48 87 C48 84.03 48 81.06 48 78 C47.01 78.33 46.02 78.66 45 79 C37.31151273 79.70420079 30.54580623 79.39064303 24 75 C21.1316138 72.3035794 18.13297488 69.20137768 17.88647461 65.12060547 C17.89432983 64.00516357 17.89432983 64.00516357 17.90234375 62.8671875 C17.90717773 61.65869141 17.90717773 61.65869141 17.91210938 60.42578125 C17.92467773 59.16314453 17.92467773 59.16314453 17.9375 57.875 C17.94201172 57.02550781 17.94652344 56.17601562 17.95117188 55.30078125 C17.96297126 53.20049091 17.98090694 51.1002367 18 49 C18.95712891 48.80083984 18.95712891 48.80083984 19.93359375 48.59765625 C20.75988281 48.42105469 21.58617187 48.24445313 22.4375 48.0625 C23.26121094 47.88847656 24.08492188 47.71445312 24.93359375 47.53515625 C26.97661204 47.19247006 26.97661204 47.19247006 28 46 C28.23527773 43.65012738 28.41386417 41.29443961 28.5625 38.9375 C28.706875 36.648125 28.85125 34.35875 29 32 C22.4 32 15.8 32 9 32 C9 50.15 9 68.3 9 87 C5.37 87 1.74 87 -2 87 C-2 68.85 -2 50.7 -2 32 C-5.3 32 -8.6 32 -12 32 C-12 50.15 -12 68.3 -12 87 C-15.63 87 -19.26 87 -23 87 C-23 74.46 -23 61.92 -23 49 C-29.58553975 48.74984827 -29.58553975 48.74984827 -35 51 C-35.08726223 52.78071246 -35.10699041 54.5648314 -35.09765625 56.34765625 C-35.09443359 57.42724609 -35.09121094 58.50683594 -35.08789062 59.61914062 C-35.07951172 60.75544922 -35.07113281 61.89175781 -35.0625 63.0625 C-35.05798828 64.20267578 -35.05347656 65.34285156 -35.04882812 66.51757812 C-35.03699747 69.34510351 -35.0205141 72.1725264 -35 75 C-33.35 75.66 -31.7 76.32 -30 77 C-30 80.3 -30 83.6 -30 87 C-39.13396482 87.48714479 -39.13396482 87.48714479 -43 85.3125 C-46.7689218 80.95468417 -47.2545968 76.99964169 -47.265625 71.34375 C-47.26949219 69.43916016 -47.26949219 69.43916016 -47.2734375 67.49609375 C-47.26570313 66.17738281 -47.25796875 64.85867188 -47.25 63.5 C-47.26160156 61.52193359 -47.26160156 61.52193359 -47.2734375 59.50390625 C-47.27085937 58.23417969 -47.26828125 56.96445312 -47.265625 55.65625 C-47.26336914 54.49931641 -47.26111328 53.34238281 -47.25878906 52.15039062 C-46.94506278 48.33121705 -46.20302894 45.327018 -43.59765625 42.453125 C-39.26418093 39.05691533 -36.44986119 37.85878018 -31 37.875 C-30.13375 37.87242187 -29.2675 37.86984375 -28.375 37.8671875 C-26 38 -26 38 -23 39 C-23 36.69 -23 34.38 -23 32 C-33.89 32 -44.78 32 -56 32 C-55.88173549 39.01537143 -55.88173549 39.01537143 -55.72973633 46.0300293 C-55.65303144 55.04738951 -55.65303144 55.04738951 -59 59 C-62.99573545 62.79082594 -66.05033591 63.24372831 -71.375 63.25 C-73.25076302 63.1861054 -75.12632538 63.10914609 -77 63 C-76.88610125 64.79240663 -76.75852313 66.58394835 -76.625 68.375 C-76.55539062 69.37273437 -76.48578125 70.37046875 -76.4140625 71.3984375 C-76.23636036 74.15508879 -76.23636036 74.15508879 -74 76 C-70.81298578 76.2827681 -70.81298578 76.2827681 -67.1875 76.1875 C-65.96417969 76.18105469 -64.74085938 76.17460937 -63.48046875 76.16796875 C-59.72062677 76.07292932 -59.72062677 76.07292932 -55 75 C-55 78.63 -55 82.26 -55 86 C-64.212484 88.37741523 -73.32739926 89.82884228 -82 85 C-86.11799746 81.6876977 -87.65116527 79.05007918 -89 74 C-89.22705078 70.47314453 -89.22705078 70.47314453 -89.1953125 66.6328125 C-89.19106766 65.61343094 -89.19106766 65.61343094 -89.18673706 64.57345581 C-89.17562964 62.42378392 -89.15054391 60.27454386 -89.125 58.125 C-89.11495795 56.65886023 -89.10583425 55.19271386 -89.09765625 53.7265625 C-89.07572159 50.15090369 -89.04125814 46.57549406 -89 43 C-85.37 43 -81.74 43 -78 43 C-77.67 45.97 -77.34 48.94 -77 52 C-72.99745544 52.09181134 -72.99745544 52.09181134 -69 52 C-67.45049732 50.45049732 -67.78344807 48.90009406 -67.68359375 46.74609375 C-67.64548584 45.9770874 -67.60737793 45.20808105 -67.56811523 44.41577148 C-67.50346069 42.9415271 -67.50346069 42.9415271 -67.4375 41.4375 C-67.293125 38.323125 -67.14875 35.20875 -67 32 C-76.9 32 -86.8 32 -97 32 C-97 28.7 -97 25.4 -97 22 C-65.65 22 -34.3 22 -2 22 C-1.86779854 15.96347336 -1.86779854 15.96347336 -4 11 C-5.99958364 10.95919217 -8.00045254 10.95745644 -10 11 C-10.66 12.98 -11.32 14.96 -12 17 C-15.63 17 -19.26 17 -23 17 C-23.24957119 10.63593477 -22.72655032 7.21985041 -18.8125 2.1875 C-13.84304074 -1.73120295 -5.91139963 -0.77866955 0 0 Z " fill="#0758A7" transform="translate(452,268)"/>
<path d="M0 0 C2.72707512 0.56831101 3.88837331 1.05105661 5.79296875 3.04296875 C8.04397609 7.38974155 8.02061547 9.72726674 7.60546875 14.54296875 C9.25546875 14.54296875 10.90546875 14.54296875 12.60546875 14.54296875 C12.60546875 16.52296875 12.60546875 18.50296875 12.60546875 20.54296875 C10.95546875 20.54296875 9.30546875 20.54296875 7.60546875 20.54296875 C7.60546875 32.42296875 7.60546875 44.30296875 7.60546875 56.54296875 C4.96546875 56.54296875 2.32546875 56.54296875 -0.39453125 56.54296875 C-0.39453125 44.66296875 -0.39453125 32.78296875 -0.39453125 20.54296875 C-2.37453125 20.54296875 -4.35453125 20.54296875 -6.39453125 20.54296875 C-6.39453125 32.42296875 -6.39453125 44.30296875 -6.39453125 56.54296875 C-8.70453125 56.54296875 -11.01453125 56.54296875 -13.39453125 56.54296875 C-13.72453125 53.24296875 -14.05453125 49.94296875 -14.39453125 46.54296875 C-15.36390625 47.86296875 -16.33328125 49.18296875 -17.33203125 50.54296875 C-20.62669168 54.37773745 -20.62669168 54.37773745 -23.86328125 55.07421875 C-26.08956382 55.04603796 -28.19839696 54.90152129 -30.39453125 54.54296875 C-25.91145706 49.23406511 -21.24504592 44.14134524 -16.46875 39.09375 C-14.55684741 36.74257789 -13.76081655 35.4939843 -13.39453125 32.54296875 C-17.40462465 32.36432244 -17.40462465 32.36432244 -21.39453125 32.54296875 C-23.75406219 34.90249969 -23.88594538 36.32192492 -24.39453125 39.54296875 C-26.37453125 39.54296875 -28.35453125 39.54296875 -30.39453125 39.54296875 C-30.84898928 34.90749687 -30.99899889 31.60078713 -28.64453125 27.48046875 C-23.72402285 24.54708875 -18.98542511 25.14170842 -13.39453125 25.54296875 C-13.39453125 23.89296875 -13.39453125 22.24296875 -13.39453125 20.54296875 C-20.65453125 20.54296875 -27.91453125 20.54296875 -35.39453125 20.54296875 C-35.39453125 32.42296875 -35.39453125 44.30296875 -35.39453125 56.54296875 C-37.70453125 56.54296875 -40.01453125 56.54296875 -42.39453125 56.54296875 C-42.39453125 49.28296875 -42.39453125 42.02296875 -42.39453125 34.54296875 C-44.37453125 34.54296875 -46.35453125 34.54296875 -48.39453125 34.54296875 C-48.35972656 35.435 -48.32492187 36.32703125 -48.2890625 37.24609375 C-48.26199219 38.4165625 -48.23492187 39.58703125 -48.20703125 40.79296875 C-48.17222656 41.953125 -48.13742187 43.11328125 -48.1015625 44.30859375 C-48.41835632 47.8059975 -48.91342709 49.11391573 -51.39453125 51.54296875 C-55.48880142 52.90772547 -59.11843882 53.14207102 -63.39453125 52.54296875 C-66.45703125 50.91796875 -66.45703125 50.91796875 -68.39453125 47.54296875 C-69.29370775 41.31561416 -69.65914321 35.67700144 -66.39453125 30.16796875 C-62.37799735 27.99234622 -59.91459067 28.15991287 -55.39453125 28.54296875 C-55.39453125 25.90296875 -55.39453125 23.26296875 -55.39453125 20.54296875 C-61.99453125 20.54296875 -68.59453125 20.54296875 -75.39453125 20.54296875 C-75.39453125 32.42296875 -75.39453125 44.30296875 -75.39453125 56.54296875 C-77.70453125 56.54296875 -80.01453125 56.54296875 -82.39453125 56.54296875 C-82.39453125 48.62296875 -82.39453125 40.70296875 -82.39453125 32.54296875 C-84.04453125 32.54296875 -85.69453125 32.54296875 -87.39453125 32.54296875 C-87.33652344 33.6515625 -87.27851563 34.76015625 -87.21875 35.90234375 C-87.17184296 37.36584327 -87.1263438 38.82938838 -87.08203125 40.29296875 C-87.04013672 41.02257812 -86.99824219 41.7521875 -86.95507812 42.50390625 C-86.86770143 46.34848069 -87.01962983 48.12684781 -89.6328125 51.02734375 C-92.36504122 52.52678469 -93.8212685 53.08625414 -96.89453125 53.04296875 C-97.9928125 53.0584375 -97.9928125 53.0584375 -99.11328125 53.07421875 C-102.5268792 52.27927128 -104.05117714 51.16606583 -106.39453125 48.54296875 C-107.13087302 45.54694983 -107.09354139 42.67688956 -107.01953125 39.60546875 C-107.03886719 38.80689453 -107.05820312 38.00832031 -107.078125 37.18554688 C-107.0445407 33.13192201 -106.67302078 30.98358099 -104.46875 27.49609375 C-100.12230037 24.73468992 -96.61425864 24.9865502 -91.58203125 25.23046875 C-90.69837891 25.25302734 -89.81472656 25.27558594 -88.90429688 25.29882812 C-86.73364215 25.35749447 -84.56386435 25.44716896 -82.39453125 25.54296875 C-82.39453125 23.89296875 -82.39453125 22.24296875 -82.39453125 20.54296875 C-91.96453125 20.54296875 -101.53453125 20.54296875 -111.39453125 20.54296875 C-111.39453125 32.42296875 -111.39453125 44.30296875 -111.39453125 56.54296875 C-113.70453125 56.54296875 -116.01453125 56.54296875 -118.39453125 56.54296875 C-119.39453125 55.54296875 -119.39453125 55.54296875 -119.50805664 52.21655273 C-119.50789754 50.74071319 -119.50220439 49.26486806 -119.4921875 47.7890625 C-119.49077255 47.01361588 -119.4893576 46.23816925 -119.48789978 45.43922424 C-119.4822847 42.95293381 -119.46972971 40.46673215 -119.45703125 37.98046875 C-119.45201819 36.29882942 -119.44745495 34.61718869 -119.44335938 32.93554688 C-119.43231038 28.80465309 -119.4150357 24.67382599 -119.39453125 20.54296875 C-121.37453125 20.54296875 -123.35453125 20.54296875 -125.39453125 20.54296875 C-125.39453125 32.42296875 -125.39453125 44.30296875 -125.39453125 56.54296875 C-127.70453125 56.54296875 -130.01453125 56.54296875 -132.39453125 56.54296875 C-132.39453125 55.22296875 -132.39453125 53.90296875 -132.39453125 52.54296875 C-133.13058594 52.57777344 -133.86664063 52.61257812 -134.625 52.6484375 C-144.64847916 52.92649967 -144.64847916 52.92649967 -148.39453125 49.54296875 C-150.29743607 46.45663195 -150.66626642 44.08307271 -150.64453125 40.48046875 C-150.6496875 39.62324219 -150.65484375 38.76601562 -150.66015625 37.8828125 C-150.39453125 35.54296875 -150.39453125 35.54296875 -148.39453125 32.54296875 C-148.72453125 32.21296875 -149.05453125 31.88296875 -149.39453125 31.54296875 C-149.46679627 29.69009373 -149.47834345 27.83462997 -149.45703125 25.98046875 C-149.44800781 24.96855469 -149.43898438 23.95664063 -149.4296875 22.9140625 C-149.41808594 22.13160156 -149.40648437 21.34914062 -149.39453125 20.54296875 C-151.70453125 20.54296875 -154.01453125 20.54296875 -156.39453125 20.54296875 C-156.39453125 32.42296875 -156.39453125 44.30296875 -156.39453125 56.54296875 C-158.70453125 56.54296875 -161.01453125 56.54296875 -163.39453125 56.54296875 C-163.88953125 51.59296875 -163.88953125 51.59296875 -164.39453125 46.54296875 C-164.80703125 47.26484375 -165.21953125 47.98671875 -165.64453125 48.73046875 C-170.30525822 56.22092281 -170.30525822 56.22092281 -173.640625 57.20703125 C-175.83203125 57.16796875 -175.83203125 57.16796875 -179.39453125 56.54296875 C-178.01715552 52.52562286 -176.06427 49.81555174 -173.39453125 46.54296875 C-173.06453125 45.55296875 -172.73453125 44.56296875 -172.39453125 43.54296875 C-173.35359375 43.10984375 -173.35359375 43.10984375 -174.33203125 42.66796875 C-176.39453125 41.54296875 -176.39453125 41.54296875 -177.39453125 39.54296875 C-177.47795284 38.09448293 -177.50185986 36.64226006 -177.4921875 35.19140625 C-177.48896484 34.340625 -177.48574219 33.48984375 -177.48242188 32.61328125 C-177.47404297 31.72382813 -177.46566406 30.834375 -177.45703125 29.91796875 C-177.45251953 29.02078125 -177.44800781 28.12359375 -177.44335938 27.19921875 C-177.43155716 24.98040227 -177.4150928 22.76171857 -177.39453125 20.54296875 C-179.04453125 20.54296875 -180.69453125 20.54296875 -182.39453125 20.54296875 C-182.39453125 18.56296875 -182.39453125 16.58296875 -182.39453125 14.54296875 C-167.54453125 14.54296875 -152.69453125 14.54296875 -137.39453125 14.54296875 C-137.39453125 16.52296875 -137.39453125 18.50296875 -137.39453125 20.54296875 C-139.04453125 20.54296875 -140.69453125 20.54296875 -142.39453125 20.54296875 C-141.89953125 24.99796875 -141.89953125 24.99796875 -141.39453125 29.54296875 C-140.07453125 29.87296875 -138.75453125 30.20296875 -137.39453125 30.54296875 C-137.39453125 32.52296875 -137.39453125 34.50296875 -137.39453125 36.54296875 C-139.86953125 37.03796875 -139.86953125 37.03796875 -142.39453125 37.54296875 C-142.43707481 39.54251621 -142.43533908 41.54338511 -142.39453125 43.54296875 C-139.9908304 45.9466696 -135.77308629 45.16757375 -132.39453125 45.54296875 C-132.39453125 35.31296875 -132.39453125 25.08296875 -132.39453125 14.54296875 C-88.83453125 14.54296875 -45.27453125 14.54296875 -0.39453125 14.54296875 C-0.72453125 12.23296875 -1.05453125 9.92296875 -1.39453125 7.54296875 C-2.71453125 7.54296875 -4.03453125 7.54296875 -5.39453125 7.54296875 C-5.72453125 8.86296875 -6.05453125 10.18296875 -6.39453125 11.54296875 C-8.70453125 11.54296875 -11.01453125 11.54296875 -13.39453125 11.54296875 C-13.83812388 7.72807217 -13.65488418 5.95594236 -11.58203125 2.66796875 C-7.55221416 -0.01857597 -4.7731564 -0.23833574 0 0 Z " fill="#BCD53B" transform="translate(504.39453125,201.45703125)"/>
<path d="M0 0 C0.78117187 -0.01998047 1.56234375 -0.03996094 2.3671875 -0.06054688 C7.71591809 -0.05604458 10.76628955 0.90193545 15 4.4375 C19.82168441 10.56234236 20.15684436 15.66616494 20.0625 23.25 C20.05798828 23.94287109 20.05347656 24.63574219 20.04882812 25.34960938 C20.03713156 27.04561068 20.01919924 28.74156703 20 30.4375 C23.63 30.4375 27.26 30.4375 31 30.4375 C31 20.5375 31 10.6375 31 0.4375 C47.83 0.4375 64.66 0.4375 82 0.4375 C82 4.3975 82 8.3575 82 12.4375 C78.7 12.4375 75.4 12.4375 72 12.4375 C72 35.5375 72 58.6375 72 82.4375 C67.38 82.4375 62.76 82.4375 58 82.4375 C58 59.3375 58 36.2375 58 12.4375 C53.71 12.4375 49.42 12.4375 45 12.4375 C45 35.5375 45 58.6375 45 82.4375 C40.38 82.4375 35.76 82.4375 31 82.4375 C31 69.2375 31 56.0375 31 42.4375 C27.04 42.4375 23.08 42.4375 19 42.4375 C19.05800781 43.860625 19.11601562 45.28375 19.17578125 46.75 C19.222707 48.64580033 19.26820412 50.5416364 19.3125 52.4375 C19.35439453 53.37207031 19.39628906 54.30664062 19.43945312 55.26953125 C19.55501555 61.87970168 18.56375481 66.48577668 14 71.4375 C9.32211986 74.76194853 5.03672859 74.90007567 -0.5 74.8125 C-1.23347656 74.82410156 -1.96695312 74.83570313 -2.72265625 74.84765625 C-7.53253676 74.82184294 -10.82714668 74.05099109 -15 71.4375 C-20.57780183 65.25669257 -20.24176232 60.74216344 -20.3125 52.6875 C-20.34150391 51.60210937 -20.37050781 50.51671875 -20.40039062 49.3984375 C-20.4505819 43.08205823 -20.31328073 39.19536843 -16 34.4375 C-9.54442174 29.104631 -3.13889578 30.12744683 5 30.4375 C4.67 25.1575 4.34 19.8775 4 14.4375 C-2.31483984 12.8577491 -2.31483984 12.8577491 -5 14.4375 C-5.46651207 16.56326782 -5.46651207 16.56326782 -5.625 19 C-5.74875 20.464375 -5.8725 21.92875 -6 23.4375 C-10.62 23.4375 -15.24 23.4375 -20 23.4375 C-20.40946593 16.23089968 -20.69530001 11.16075002 -16.6796875 5.05859375 C-11.73013174 0.28169691 -6.49937572 -0.05898773 0 0 Z " fill="#F27124" transform="translate(280,274.5625)"/>
<path d="M0 0 C31.35 0 62.7 0 95 0 C95 4.95 95 9.9 95 15 C91.04 15 87.08 15 83 15 C83 42.72 83 70.44 83 99 C77.39 99 71.78 99 66 99 C66 79.86 66 60.72 66 41 C61.38 41 56.76 41 52 41 C52.01571045 41.99330322 52.0314209 42.98660645 52.04760742 44.01000977 C52.10220199 47.72053818 52.13645656 51.43103158 52.16479492 55.1418457 C52.17981466 56.74314356 52.20023663 58.34440075 52.22631836 59.94555664 C52.26300438 62.25677571 52.27979435 64.56744756 52.29296875 66.87890625 C52.30845261 67.58648575 52.32393646 68.29406525 52.33988953 69.02308655 C52.34196853 75.26374687 50.60231739 79.4481612 47.3125 84.6875 C40.90959795 91.09040205 33.24303142 92.14378484 24.5 92.1875 C23.2109375 92.20167969 21.921875 92.21585937 20.59375 92.23046875 C17 92 17 92 12 90 C12 85.05 12 80.1 12 75 C13.98 75.33 15.96 75.66 18 76 C24.03890926 76.47869403 28.78429508 76.47713662 34 73 C35.43509221 70.12981559 35.11158506 67.66456277 35.09765625 64.4609375 C35.09443359 63.15898437 35.09121094 61.85703125 35.08789062 60.515625 C35.07953466 59.13541601 35.07106971 57.75520768 35.0625 56.375 C35.05748501 54.98698074 35.0529221 53.59895978 35.04882812 52.2109375 C35.03700985 48.80727327 35.0190739 45.4036313 35 42 C29.72 42 24.44 42 19 42 C19 36.72 19 31.44 19 26 C34.51 26 50.02 26 66 26 C66 22.37 66 18.74 66 15 C44.22 15 22.44 15 0 15 C0 10.05 0 5.1 0 0 Z " fill="#F27328" transform="translate(259,371)"/>
<path d="M0 0 C24.42 0 48.84 0 74 0 C74 4.62 74 9.24 74 14 C69.71 14 65.42 14 61 14 C61 41.39 61 68.78 61 97 C55.72 97 50.44 97 45 97 C45 90.73 45 84.46 45 78 C44.01 78.495 44.01 78.495 43 79 C24.94941838 80.00927983 24.94941838 80.00927983 18 76 C13.92897786 72.32975206 11.28075617 67.96204706 10.75949097 62.46257019 C10.76393219 61.56766373 10.76837341 60.67275726 10.77294922 59.75073242 C10.77317581 58.21971138 10.77317581 58.21971138 10.77340698 56.65776062 C10.78372955 55.5680043 10.79405212 54.47824799 10.8046875 53.35546875 C10.8075174 52.2305452 10.81034729 51.10562164 10.81326294 49.9466095 C10.82444164 46.36013064 10.84954237 42.77390315 10.875 39.1875 C10.88503277 36.75325882 10.8941581 34.31901372 10.90234375 31.88476562 C10.92437348 25.9230805 10.95888782 19.96158284 11 14 C7.37 14 3.74 14 0 14 C0 9.38 0 4.76 0 0 Z " fill="#F27023" transform="translate(270,483)"/>
<path d="M0 0 C2.4375 0.4375 2.4375 0.4375 4.25 1.5 C6.09672424 4.51307639 5.97294817 7.06005769 5.4375 10.4375 C4.56336613 13.51265812 3.57272858 16.54117504 2.5859375 19.58203125 C-1.98446201 34.31361608 -4.67778829 50.22777201 -4.8125 65.625 C-4.8218457 66.3372876 -4.83119141 67.0495752 -4.84082031 67.78344727 C-4.76755979 80.10107724 -0.83815641 90.74761339 3.5625 102.0625 C4.40718639 104.26003072 5.24920516 106.45856187 6.09005737 108.65756226 C6.61027797 110.01527853 7.13323973 111.37194834 7.65921021 112.72744751 C9.4375 117.32985913 9.4375 117.32985913 9.4375 118.4375 C-4.497752 117.84702322 -20.75980174 114.59324542 -32.26953125 106.19140625 C-34.24961719 103.50542864 -34.96678937 100.61674018 -35.9375 97.4375 C-38.03286371 90.84959456 -40.46901137 84.63292941 -43.5625 78.4375 C-44.13742187 77.27605469 -44.71234375 76.11460937 -45.3046875 74.91796875 C-53.12016584 59.50566894 -63.21529758 45.73017754 -76.1484375 34.19921875 C-76.74744873 33.66377441 -77.34645996 33.12833008 -77.96362305 32.57666016 C-79.12958819 31.5475768 -80.30777868 30.5321354 -81.49926758 29.53271484 C-85.46445104 26.06717222 -85.46445104 26.06717222 -85.98828125 22.703125 C-85.5625 20.4375 -85.5625 20.4375 -84.5625 18.625 C-82.03726219 17.12564005 -79.81253324 16.7530626 -76.88964844 16.80151367 C-71.67122332 18.22765692 -68.21656062 23.13316559 -64.6875 27 C-53.47774161 39.58086175 -53.47774161 39.58086175 -38.5625 46.4375 C-34.23115093 46.48390731 -30.71934003 46.0562749 -26.875 44 C-19.20895095 35.50518889 -15.28336866 24.28649196 -10.88671875 13.8984375 C-10.38527344 12.73828125 -9.88382813 11.578125 -9.3671875 10.3828125 C-8.92358887 9.33625488 -8.47999023 8.28969727 -8.02294922 7.21142578 C-6.06149353 3.48590597 -4.28538277 0.73165072 0 0 Z " fill="#2A4299" transform="translate(640.5625,198.5625)"/>
<path d="M0 0 C26.73 0 53.46 0 81 0 C81 3.96 81 7.92 81 12 C77.37 12 73.74 12 70 12 C70 34.77 70 57.54 70 81 C65.71 81 61.42 81 57 81 C56 80 56 80 55.87974548 78.13340759 C55.88196609 77.31844315 55.88418671 76.5034787 55.88647461 75.66381836 C55.88655014 74.7429393 55.88662567 73.82206024 55.88670349 72.87327576 C55.89186478 71.87224319 55.89702606 70.87121063 55.90234375 69.83984375 C55.9037587 68.82024063 55.90517365 67.80063751 55.90663147 66.75013733 C55.91224903 63.47922893 55.9248045 60.20838787 55.9375 56.9375 C55.94251274 54.72591244 55.94707604 52.51432382 55.95117188 50.30273438 C55.96222417 44.86846346 55.97950056 39.43424316 56 34 C52.7 34 49.4 34 46 34 C46.15984375 34.62390625 46.3196875 35.2478125 46.484375 35.890625 C47.19667791 40.18602742 47.2242767 44.40276147 47.25 48.75 C47.270625 49.6059375 47.29125 50.461875 47.3125 51.34375 C47.35078045 57.66002369 46.87757149 64.60935736 42.6184082 69.62792969 C36.96884769 74.60996799 31.35266576 74.29169648 24.1328125 74.2109375 C18.69422498 73.84474832 15.69734844 71.9745326 12.1875 68 C7.78573788 61.96329767 8.77903653 55.45105937 8.75 48.25 C8.729375 46.98671875 8.70875 45.7234375 8.6875 44.421875 C8.63812301 32.67015138 8.63812301 32.67015138 12 27 C16.75149944 22.37354002 21.13873414 20.77193893 27.75032043 20.77340698 C28.4682225 20.78372955 29.18612457 20.79405212 29.92578125 20.8046875 C30.67337204 20.8075174 31.42096283 20.81034729 32.19120789 20.81326294 C34.5651388 20.82440531 36.93868425 20.84949838 39.3125 20.875 C40.9277289 20.88503751 42.54296376 20.89416201 44.15820312 20.90234375 C48.10561594 20.92432511 52.05274274 20.95881343 56 21 C56 18.03 56 15.06 56 12 C37.52 12 19.04 12 0 12 C0 8.04 0 4.08 0 0 Z " fill="#0859A7" transform="translate(345,389)"/>
<path d="M0 0 C5.70208103 1.84375141 7.35909848 5.76915163 10.28125 10.78515625 C18.20743857 24.40904025 18.20743857 24.40904025 30.78125 33.22265625 C35.95860494 33.46919696 38.66448052 32.68710182 42.65625 29.41015625 C48.52503816 23.80708094 53.58311538 17.31264541 58.57421875 10.9296875 C60.70226407 8.27646904 62.29553585 6.42597845 65.46875 5.09765625 C67.78125 5.22265625 67.78125 5.22265625 69.65625 6.34765625 C70.78125 8.22265625 70.78125 8.22265625 70.609375 10.375 C69.51516133 14.13764985 67.6335509 17.30931354 65.65625 20.66015625 C52.34334667 43.14312142 52.34334667 43.14312142 47.81201172 68.36083984 C47.91962685 75.52138536 47.06075362 80.04839514 42.15625 85.59765625 C25.33143029 102.22265625 25.33143029 102.22265625 18.78125 102.22265625 C18.76143066 101.58465088 18.74161133 100.94664551 18.72119141 100.28930664 C17.74051525 70.11861507 15.70585007 34.9779996 -3.87109375 10.125 C-5.78285903 7.42636321 -5.56911941 5.44605479 -5.21875 2.22265625 C-3.21875 0.22265625 -3.21875 0.22265625 0 0 Z " fill="#2B4399" transform="translate(695.21875,199.77734375)"/>
<path d="M0 0 C1.22399452 6.64041122 1.11227753 13.20221697 1.0625 19.9375 C1.05798828 21.09830078 1.05347656 22.25910156 1.04882812 23.45507812 C1.03710647 26.30343934 1.0206976 29.15169222 1 32 C-10.69026612 38.03223719 -22.14217016 42.19445965 -35 45 C-35.79462646 45.18175781 -36.58925293 45.36351562 -37.40795898 45.55078125 C-40.166046 46.02877693 -42.72155919 46.11328738 -45.51953125 46.09765625 C-46.54111328 46.09443359 -47.56269531 46.09121094 -48.61523438 46.08789062 C-49.67033203 46.07951172 -50.72542969 46.07113281 -51.8125 46.0625 C-52.88693359 46.05798828 -53.96136719 46.05347656 -55.06835938 46.04882812 C-57.71229683 46.03707729 -60.35611952 46.02064787 -63 46 C-64.67849523 42.00482074 -66.34422695 38.0046604 -68 34 C-68.27247559 33.34257812 -68.54495117 32.68515625 -68.82568359 32.0078125 C-69.66053606 29.98674357 -70.48743866 27.96258314 -71.3125 25.9375 C-71.71202881 24.97348267 -71.71202881 24.97348267 -72.11962891 23.98999023 C-73.26739424 21.15373624 -74 19.0924728 -74 16 C-72.81792969 15.731875 -71.63585937 15.46375 -70.41796875 15.1875 C-68.67447532 14.79168361 -66.93098616 14.39584841 -65.1875 14 C-64.23351318 13.78359863 -63.27952637 13.56719727 -62.29663086 13.34423828 C-56.7100197 12.0754841 -51.12497811 10.80018271 -45.54222107 9.5145874 C-42.47927784 8.80932787 -39.41598127 8.10560873 -36.35269165 7.40185547 C-34.84761257 7.05561408 -33.34270386 6.70863114 -31.83798218 6.36083984 C-4.31313783 0 -4.31313783 0 0 0 Z " fill="#B9D333" transform="translate(713,271)"/>
<path d="M0 0 C0.33820166 1.5823006 0.67035939 3.16589375 1 4.75 C1.185625 5.63171875 1.37125 6.5134375 1.5625 7.421875 C2 10 2 10 2 14 C2.65226563 13.855625 3.30453125 13.71125 3.9765625 13.5625 C8.72620177 12.55372706 13.11409188 11.74284694 18 12 C20.08386889 17.27913453 20.57910004 22.39538469 21 28 C16.29026351 29.76615118 11.96916636 30.48594831 7 31 C7.144375 31.73605469 7.28875 32.47210938 7.4375 33.23046875 C7.623125 34.20628906 7.80875 35.18210937 8 36.1875 C8.185625 37.15042969 8.37125 38.11335938 8.5625 39.10546875 C8.96877612 41.7934206 9.07933572 44.28771019 9 47 C5.33552568 48.64800856 2.18796534 49.33580973 -1.8125 49.625 C-2.78832031 49.69976562 -3.76414062 49.77453125 -4.76953125 49.8515625 C-5.50558594 49.90054688 -6.24164062 49.94953125 -7 50 C-9.03993514 45.07015675 -10.40652968 41.42039575 -10 36 C-10.65226563 36.144375 -11.30453125 36.28875 -11.9765625 36.4375 C-16.72620177 37.44627294 -21.11409188 38.25715306 -26 38 C-27.93242285 34.65479742 -28.5463853 31.55232518 -29.125 27.75 C-29.29257812 26.67234375 -29.46015625 25.5946875 -29.6328125 24.484375 C-29.75398437 23.66453125 -29.87515625 22.8446875 -30 22 C-25.07227969 20.23107476 -20.11365014 19.0681847 -15 18 C-15.33 16.845 -15.66 15.69 -16 14.5 C-17.08401934 10.22499413 -17.15701377 6.39638547 -17 2 C-11.19233704 0.4943096 -6.0018137 -0.21824777 0 0 Z " fill="#EC2327" transform="translate(671,222)"/>
<path d="M0 0 C4.97672858 2.22175383 8.82222666 5.95868639 11 11 C11.88296855 16.2824553 11.70834066 20.52883094 9.375 25.375 C1.91452648 33.62078652 1.91452648 33.62078652 -3.1015625 34.2734375 C-9.69408994 34.53877142 -14.05341414 33.49067933 -19 29 C-22.94294251 24.61152726 -23.59248402 20.1388887 -23.3125 14.35546875 C-22.56527258 8.72324204 -19.62862283 4.65352169 -15.29296875 1.140625 C-10.46205046 -1.26248938 -5.21363734 -0.77363651 0 0 Z " fill="#2B4398" transform="translate(608,202)"/>
<path d="M0 0 C5.61 0 11.22 0 17 0 C17.02464201 6.96003966 17.04283222 13.92005416 17.05493164 20.88012695 C17.05997341 23.24992312 17.06680665 25.61971615 17.07543945 27.98950195 C17.0875119 31.38754039 17.09322971 34.78553785 17.09765625 38.18359375 C17.10281754 39.25024765 17.10797882 40.31690155 17.11329651 41.4158783 C17.11340981 42.88729027 17.11340981 42.88729027 17.11352539 44.38842773 C17.115746 45.25668686 17.11796661 46.12494598 17.12025452 47.01951599 C17 49 17 49 16 50 C13.87880076 50.15193163 11.75144685 50.22183514 9.625 50.25 C8.46226562 50.27578125 7.29953125 50.3015625 6.1015625 50.328125 C3 50 3 50 1.32743835 48.77043152 C-0.3864101 46.48463699 -0.36341746 45.18490469 -0.34057617 42.3449707 C-0.34034958 41.40422195 -0.34012299 40.46347321 -0.33988953 39.49421692 C-0.32440567 38.48163315 -0.30892181 37.46904938 -0.29296875 36.42578125 C-0.28872391 35.38681198 -0.28447906 34.34784271 -0.28010559 33.27738953 C-0.26329849 29.95549724 -0.22564196 26.63420925 -0.1875 23.3125 C-0.17245582 21.06185771 -0.15876695 18.81120593 -0.14648438 16.56054688 C-0.1133882 11.04013136 -0.06159139 5.52016817 0 0 Z " fill="#FEFCFB" transform="translate(298,497)"/>
<path d="M0 0 C4.00286313 3.27506983 5.79542307 5.39432705 6.75 10.5 C7.14022698 15.12916325 5.80525979 17.82899215 3.26953125 21.62109375 C0.82489881 24.24168945 -1.3046096 25.11433219 -4.8359375 25.62109375 C-13.29733486 25.82255559 -13.29733486 25.82255559 -16.8125 23.0625 C-20.17349334 19.18443076 -21.10813295 16.83891098 -21.5625 11.75 C-21.06661325 6.19606835 -18.44238525 2.80717536 -14.25 -0.75 C-9.45020028 -2.73612402 -4.50913545 -2.42799601 0 0 Z " fill="#2C4499" transform="translate(737.25,199.75)"/>
<path d="M0 0 C2.64 0 5.28 0 8 0 C8.0246501 5.10863896 8.04283607 10.21724359 8.05493164 15.32592773 C8.05997204 17.06519168 8.0668043 18.80445136 8.07543945 20.54370117 C8.08751792 23.03825937 8.09323108 25.53276173 8.09765625 28.02734375 C8.10281754 28.80963852 8.10797882 29.59193329 8.11329651 30.39793396 C8.11349226 32.26567114 8.06199694 34.13329204 8 36 C6.28783874 37.71216126 4.08192944 37.17191224 1.75 37.1875 C0.79609375 37.20167969 -0.1578125 37.21585938 -1.140625 37.23046875 C-4.17281887 36.98607061 -6.2891495 36.36247252 -9 35 C-11.64481422 31.62558186 -12.36498871 29.25820163 -12 25 C-11.06027344 24.63648438 -11.06027344 24.63648438 -10.1015625 24.265625 C-9.28429687 23.93046875 -8.46703125 23.5953125 -7.625 23.25 C-6.81289063 22.92515625 -6.00078125 22.6003125 -5.1640625 22.265625 C-2.4750959 20.69301637 -1.92681627 19.97353555 -1 17 C-0.63389434 14.08749207 -0.49169179 11.18188116 -0.375 8.25 C-0.31699219 7.06083984 -0.31699219 7.06083984 -0.2578125 5.84765625 C-0.163892 3.89880584 -0.08087178 1.94943549 0 0 Z " fill="#F8FAFC" transform="translate(430,524)"/>
<path d="M0 0 C2.64 0 5.28 0 8 0 C8 11.88 8 23.76 8 36 C-4.28571429 37.22857143 -4.28571429 37.22857143 -9.875 33.875 C-11.75948493 30.73419178 -11.17714035 27.60185387 -11 24 C-10.44570313 23.81824219 -9.89140625 23.63648438 -9.3203125 23.44921875 C-8.59585937 23.19785156 -7.87140625 22.94648438 -7.125 22.6875 C-6.40570313 22.44386719 -5.68640625 22.20023437 -4.9453125 21.94921875 C-2.66005095 21.03664453 -2.66005095 21.03664453 -1 18 C-0.63648496 15.97457852 -0.63648496 15.97457852 -0.5859375 13.76953125 C-0.54726563 12.96708984 -0.50859375 12.16464844 -0.46875 11.33789062 C-0.42234375 10.08782227 -0.42234375 10.08782227 -0.375 8.8125 C-0.33632813 7.96751953 -0.29765625 7.12253906 -0.2578125 6.25195312 C-0.16363721 4.16832476 -0.08073325 2.08419247 0 0 Z " fill="#F9FBFC" transform="translate(492,300)"/>
<path d="M0 0 C2.1640625 -0.29296875 2.1640625 -0.29296875 4.625 -0.1875 C5.44226563 -0.16042969 6.25953125 -0.13335937 7.1015625 -0.10546875 C8.04128906 -0.05326172 8.04128906 -0.05326172 9 0 C9.02886537 4.31248609 9.04675255 8.62494762 9.0625 12.9375 C9.07087891 14.16919922 9.07925781 15.40089844 9.08789062 16.66992188 C9.09111328 17.83974609 9.09433594 19.00957031 9.09765625 20.21484375 C9.10289307 21.29886475 9.10812988 22.38288574 9.11352539 23.49975586 C9 26 9 26 8 27 C2.26388889 27.27314815 2.26388889 27.27314815 0 27 C-2.52439695 24.47560305 -2.25679544 23.58943181 -2.265625 20.09765625 C-2.26820313 19.12505859 -2.27078125 18.15246094 -2.2734375 17.15039062 C-2.26570313 16.13138672 -2.25796875 15.11238281 -2.25 14.0625 C-2.25773437 13.04736328 -2.26546875 12.03222656 -2.2734375 10.98632812 C-2.27085937 10.01244141 -2.26828125 9.03855469 -2.265625 8.03515625 C-2.26336914 7.1419165 -2.26111328 6.24867676 -2.25878906 5.32836914 C-2 3 -2 3 0 0 Z " fill="#FBFCFD" transform="translate(369,423)"/>
<path d="M0 0 C5.61 0 11.22 0 17 0 C17 7.59 17 15.18 17 23 C8.9137931 16.06896552 8.9137931 16.06896552 5.6875 13.25 C5.03136719 12.67765625 4.37523437 12.1053125 3.69921875 11.515625 C2.42973068 10.38330001 1.20286322 9.20286322 0 8 C0 5.36 0 2.72 0 0 Z " fill="#F6F9FB" transform="translate(562,401)"/>
<path d="M0 0 C2.67026145 1.99524188 5.33569697 3.99681127 8 6 C8.9075 6.67804688 9.815 7.35609375 10.75 8.0546875 C16.72500241 12.88863042 16.72500241 12.88863042 17.56640625 16.2890625 C17.5625 18.5 17.5625 18.5 17 22 C13.95059327 23.01646891 11.69630097 23.19844676 8.5 23.25 C7.5409375 23.27578125 6.581875 23.3015625 5.59375 23.328125 C3 23 3 23 1.35620117 21.77124023 C-0.39728317 19.48113602 -0.34764002 18.19316123 -0.29296875 15.33203125 C-0.28330078 14.43935547 -0.27363281 13.54667969 -0.26367188 12.62695312 C-0.23853516 11.69818359 -0.21339844 10.76941406 -0.1875 9.8125 C-0.17396484 8.87212891 -0.16042969 7.93175781 -0.14648438 6.96289062 C-0.11113096 4.64134962 -0.06178674 2.32096347 0 0 Z " fill="#F9FBFC" transform="translate(562,420)"/>
<path d="M0 0 C0.90492188 0.02320313 1.80984375 0.04640625 2.7421875 0.0703125 C4.10730469 0.09738281 4.10730469 0.09738281 5.5 0.125 C6.19867188 0.14820313 6.89734375 0.17140625 7.6171875 0.1953125 C7.64607264 3.34112673 7.66394673 6.48690719 7.6796875 9.6328125 C7.68806641 10.53064453 7.69644531 11.42847656 7.70507812 12.35351562 C7.70830078 13.20751953 7.71152344 14.06152344 7.71484375 14.94140625 C7.72008057 15.73216553 7.72531738 16.5229248 7.73071289 17.33764648 C7.6171875 19.1953125 7.6171875 19.1953125 6.6171875 20.1953125 C4.62109375 20.36328125 4.62109375 20.36328125 2.1796875 20.3828125 C0.97505859 20.40408203 0.97505859 20.40408203 -0.25390625 20.42578125 C-2.3828125 20.1953125 -2.3828125 20.1953125 -4.3828125 18.1953125 C-4.58133352 15.48608449 -4.66120727 12.90228071 -4.6328125 10.1953125 C-4.64054687 9.45796875 -4.64828125 8.720625 -4.65625 7.9609375 C-4.62858013 0.37939181 -4.62858013 0.37939181 0 0 Z " fill="#FEFAF8" transform="translate(277.3828125,316.8046875)"/>
<path d="M0 0 C1.670625 0.061875 1.670625 0.061875 3.375 0.125 C3.40387814 3.60414941 3.42175687 7.08326831 3.4375 10.5625 C3.44587891 11.55572266 3.45425781 12.54894531 3.46289062 13.57226562 C3.46611328 14.51650391 3.46933594 15.46074219 3.47265625 16.43359375 C3.47789307 17.30814209 3.48312988 18.18269043 3.48852539 19.08374023 C3.375 21.125 3.375 21.125 2.375 22.125 C-0.5625 22.3125 -0.5625 22.3125 -3.625 22.125 C-5.99068222 19.75931778 -5.88071704 19.27267774 -5.890625 16.0625 C-5.89320313 15.26585937 -5.89578125 14.46921875 -5.8984375 13.6484375 C-5.89070312 12.81570313 -5.88296875 11.98296875 -5.875 11.125 C-5.88273438 10.29226563 -5.89046875 9.45953125 -5.8984375 8.6015625 C-5.89585937 7.80492187 -5.89328125 7.00828125 -5.890625 6.1875 C-5.88836914 5.45660156 -5.88611328 4.72570312 -5.88378906 3.97265625 C-5.34552359 0.1296439 -3.58849437 0.12374119 0 0 Z " fill="#F6F9FB" transform="translate(552.625,541.875)"/>
<path d="M0 0 C2.31 0 4.62 0 7 0 C7 5.94 7 11.88 7 18 C5.02 18 3.04 18 1 18 C0 17 0 17 -0.09765625 13.18359375 C-0.09098089 11.60153318 -0.07901875 10.01948841 -0.0625 8.4375 C-0.05798828 7.63119141 -0.05347656 6.82488281 -0.04882812 5.99414062 C-0.03700518 3.99606244 -0.01906914 1.99802217 0 0 Z " fill="#FCFDF8" transform="translate(334,222)"/>
<path d="M0 0 C-1.50700797 5.34302824 -3.78037885 10.46195831 -7 15 C-7.99 15.33 -8.98 15.66 -10 16 C-10.99455488 11.13532941 -11.52756022 8.05512044 -9.25 3.5 C-6.14815647 0.05350719 -4.62677115 0 0 0 Z " fill="#F6F8F4" transform="translate(626,222)"/>
<path d="M0 0 C1.65 0 3.3 0 5 0 C5 3.63 5 7.26 5 11 C3.35 11.33 1.7 11.66 0 12 C-1 11 -1 11 -1.1328125 8.75 C-1.13023437 7.8425 -1.12765625 6.935 -1.125 6 C-1.12757813 5.0925 -1.13015625 4.185 -1.1328125 3.25 C-1 1 -1 1 0 0 Z " fill="#FBFDF6" transform="translate(444,236)"/>
<path d="M0 0 C1.65 0 3.3 0 5 0 C5 4.29 5 8.58 5 13 C3.68 13.33 2.36 13.66 1 14 C0 13 0 13 -0.09765625 10.05859375 C-0.08605469 8.86363281 -0.07445312 7.66867188 -0.0625 6.4375 C-0.05347656 5.23996094 -0.04445313 4.04242188 -0.03515625 2.80859375 C-0.02355469 1.88175781 -0.01195312 0.95492187 0 0 Z " fill="#FCFDF8" transform="translate(405,234)"/>
<path d="M0 0 C3 0.125 3 0.125 4 1.125 C4.125 3.625 4.125 3.625 4 6.125 C3 7.125 3 7.125 0 7.25 C-3 7.125 -3 7.125 -4 6.125 C-4.125 3.625 -4.125 3.625 -4 1.125 C-3 0.125 -3 0.125 0 0 Z " fill="#BCD53A" transform="translate(465,204.875)"/>
<path d="M0 0 C1.98 0 3.96 0 6 0 C6 2.64 6 5.28 6 8 C4.02 8 2.04 8 0 8 C0 5.36 0 2.72 0 0 Z " fill="#F9FBEF" transform="translate(456,222)"/>
<path d="M0 0 C1.32 0 2.64 0 4 0 C4.66 3.63 5.32 7.26 6 11 C3.35250867 8.35250867 1.71837368 6.27309273 0 3 C0 2.01 0 1.02 0 0 Z " fill="#EFF4E1" transform="translate(702,204)"/>
</svg>
